<svg width="1469" height="613" viewBox="0 0 1469 613" fill="none" xmlns="http://www.w3.org/2000/svg">
<path d="M313.439 556.23V579.803L317.804 581.716C333.139 577.688 348.088 572.129 362.518 564.961L339.632 556.23H313.439Z" fill="black"/>
<path d="M339.632 556.23V515.195L301.216 516.941L313.439 556.23H339.632Z" fill="#15918F"/>
<path d="M225.259 578.93L201.686 546.626L179.214 530.91C174.769 537.766 169.945 544.615 165.889 550.118C172.176 550.118 192.373 570.49 201.686 580.676L225.259 578.93Z" fill="black"/>
<path d="M201.686 546.626L229.625 510.829L192.082 500.352C195.583 503.269 188.167 517.103 179.214 530.91L201.686 546.626Z" fill="#165C97"/>
<path d="M350.982 183.857C352.437 190.842 354.998 206.47 353.601 211.36L365.824 212.233C365.986 208.158 366.174 199.486 365.631 197.39C362.091 190.525 355.883 187.339 350.982 183.857Z" fill="black"/>
<path d="M366.697 239.299L359.713 249.776C360.185 254.505 360.812 263.883 360.281 269.857L380.667 256.76L366.697 239.299Z" fill="black"/>
<path d="M134.458 472.413C133.76 482.89 172.583 495.405 192.082 500.352L229.625 510.829C243.596 515.02 283.173 516.65 301.216 516.941L339.632 515.195C351.855 515.195 377.349 513.972 381.54 509.083L385.905 503.844L378.921 463.514C375.908 463.973 372.652 464.546 369.317 465.429C339.632 473.286 294.776 466.755 261.927 459.317L277.642 319.623L243.592 308.273L238.353 343.196H228.749L234.861 310.019L229.622 311.765L221.765 352.8L213.907 353.673L219.145 321.369L211.287 324.861L206.922 366.77L197.318 367.643L201.683 337.085L193.826 341.45L188.587 378.12L179.856 379.866L181.602 362.404L172.872 378.993L167.633 391.216L141.44 449.713C139.404 452.914 135.157 461.936 134.458 472.413Z" fill="black"/>
<path d="M254.942 180.627L246.405 177.309L100.394 120.559C97.2796 130.223 94.4738 140.848 92.0232 151.99L233.443 195.644L241.928 198.263L335.266 227.075L345.256 216.598L254.942 180.627Z" fill="black"/>
<path d="M263.673 160.721C261.577 165.61 262.218 171.489 262.8 173.817C266.874 171.198 276.245 165.785 281.135 165.086C286.024 164.388 297.141 163.631 302.089 163.34L317.804 148.497C314.312 145.296 308.375 137.846 312.566 133.655C317.804 128.416 325.662 125.797 325.662 136.274C325.662 146.751 343.124 130.163 359.713 128.416C364.437 127.919 298.596 110.955 298.596 110.955C293.009 113.05 291.03 125.797 290.739 131.909C281.135 138.893 266.292 154.609 263.673 160.721Z" fill="black"/>
<path d="M305.581 93.4924L381.54 117.066C381.54 117.066 381.438 110.172 381.296 102.224L312.566 82.2188C309.918 86.2445 307.465 90.1963 305.581 93.4924Z" fill="black"/>
<path d="M350.982 65.5533C344.87 62.0616 336.139 58.5704 330.901 59.4433C328.335 59.8709 319.737 71.3157 312.566 82.2188L381.296 102.224C381.107 91.6239 380.848 79.1492 380.667 78.6503C380.35 77.7772 381.098 76.6066 378.047 72.5387C375.428 69.0463 356.755 68.852 350.982 65.5533Z" fill="#13A387"/>
<path d="M290.739 252.395L294.231 266.364L335.266 241.918C335.848 239.59 336.488 233.012 334.393 232.314C332.298 231.615 304.999 245.41 290.739 252.395Z" fill="white"/>
<path d="M308.56 157.228L302.089 163.34L345.256 213.979L347.489 216.598L350.982 215.725V212.233L338.758 179.055C330.901 177.309 313.449 169.801 308.56 157.228Z" fill="white"/>
<path fill-rule="evenodd" clip-rule="evenodd" d="M406.859 124.051L381.54 117.066L305.581 93.4924C295.104 88.6031 283.754 89.7094 280.261 90.0004C277.468 98.3821 291.321 107.462 298.596 110.955C298.596 110.955 364.437 127.919 359.713 128.416C343.124 130.163 325.662 146.751 325.662 136.274C325.662 125.797 317.804 128.416 312.566 133.655C308.375 137.846 314.312 145.296 317.804 148.497L308.56 157.228C313.449 169.801 330.901 177.309 338.758 179.055L350.982 212.233V215.725L347.489 216.598L345.256 213.979L302.089 163.34C297.141 163.631 286.024 164.388 281.135 165.086C276.245 165.785 266.874 171.198 262.8 173.817L254.942 180.627L345.256 216.598L335.266 227.075L241.928 198.263L158.902 387.724L167.633 391.216L172.872 378.993L181.602 362.404L179.856 379.866L188.587 378.12L193.826 341.45L201.683 337.085L197.318 367.643L206.922 366.77L211.287 324.861L219.145 321.369L213.907 353.673L221.765 352.8L229.622 311.765L234.861 310.019L228.749 343.196H238.353L243.592 308.273L277.642 319.623L261.927 459.317C294.776 466.755 339.632 473.286 369.317 465.429C372.652 464.546 375.908 463.973 378.921 463.514C378.978 463.505 379.035 463.497 379.093 463.488C380.113 463.333 381.104 463.192 382.06 463.055C390.678 461.823 396.45 460.998 394.636 454.952C386.288 427.125 361.168 354.546 347.489 322.242L287.246 319.623C287.537 319.041 290.564 317.353 300.343 315.257C312.566 312.638 347.489 268.984 348.362 267.237C349.061 265.84 348.071 261.999 347.489 260.253L359.713 249.776L366.697 239.299L380.667 256.76L360.281 269.857C360.159 271.235 359.974 272.432 359.713 273.349C358.316 278.238 355.638 293.43 354.474 300.415C355.347 301.579 359.363 303.907 368.443 303.907C377.524 303.907 387.36 295.176 391.144 290.811C401.621 276.841 383.598 243.627 382.413 234.933C379.794 215.725 368.443 220.091 368.443 210.487C368.443 204.944 367.353 200.732 365.631 197.39C366.174 199.486 365.986 208.158 365.824 212.233L353.601 211.36C354.998 206.47 352.437 190.842 350.982 183.857C350.974 183.851 350.966 183.846 350.958 183.84C350.362 183.416 349.785 182.988 349.235 182.548C343.124 178.182 350.982 178.182 350.982 178.182C367.046 171.198 373.973 144.423 375.428 131.909L384.159 134.528C388.524 135.11 397.255 136.449 400.748 133.655C404.24 130.861 406.277 126.088 406.859 124.051ZM294.231 266.364L290.739 252.395C304.999 245.41 332.298 231.615 334.393 232.314C336.488 233.012 335.848 239.59 335.266 241.918L294.231 266.364Z" fill="url(#paint0_linear_319_351)"/>
<path d="M0 481.144C0 481.144 87.3089 578.057 162.395 593.773C218.497 605.515 255.815 612.326 309.073 599.011C358.452 586.666 426.067 545.753 426.067 545.753L398.128 543.133C386.689 551.604 374.791 558.864 362.518 564.961C348.088 572.129 333.139 577.688 317.804 581.716C215.789 608.508 96.7248 567.486 0 481.144Z" fill="url(#paint1_linear_319_351)"/>
<path d="M150.171 338.061C157.713 340.337 164.665 341.722 170.25 342.323L174.324 332.719L153.795 326.314L150.171 338.061Z" fill="url(#paint2_linear_319_351)"/>
<path d="M92.2205 298.669C97.7308 306.529 104.872 313.08 112.628 318.75L113.712 309.73L93.1994 300.028L92.2205 298.669Z" fill="url(#paint3_linear_319_351)"/>
<path d="M92.2205 298.669L95.1667 282.157L88.182 279.65L86.9656 289.681C88.476 292.859 90.2433 295.848 92.2205 298.669Z" fill="url(#paint4_linear_319_351)"/>
<path d="M137.948 297.518L158.029 304.728L160.212 305.511L182.476 313.505L184.695 308.273L90.8012 272.476L84.6896 259.38L88.182 279.65L95.1667 282.157L96.9128 282.784L116.121 289.681L117.867 290.308L136.202 296.891L137.948 297.518Z" fill="black"/>
<path fill-rule="evenodd" clip-rule="evenodd" d="M116.121 289.681L96.9128 282.784L93.7948 297.518L113.887 308.273L116.121 289.681Z" fill="url(#paint5_linear_319_351)"/>
<path d="M93.1994 300.028L113.712 309.73L113.887 308.273L93.7948 297.518L93.1994 300.028Z" fill="white"/>
<path d="M95.1667 282.157L92.2205 298.669L93.1994 300.028L93.7948 297.518L96.9128 282.784L95.1667 282.157Z" fill="white"/>
<path d="M131.836 316.742L136.202 296.891L117.867 290.308L115.248 308.915L131.836 316.742Z" fill="url(#paint6_linear_319_351)"/>
<path d="M129.856 330.1L131.836 319.057L115.248 310.52L114.459 320.087C119.46 323.736 124.548 327.364 129.856 330.1Z" fill="url(#paint7_linear_319_351)"/>
<path d="M131.836 331.072L133.837 320.087L151.505 325.6L148.425 337.521C149.01 337.706 149.593 337.886 150.171 338.061L153.795 326.314L174.324 332.719L175.435 330.1L154.554 323.853L160.212 305.511L158.029 304.728L152.324 322.98L134.24 317.877L137.948 297.518L136.202 296.891L131.836 316.742L115.248 308.915L117.867 290.308L116.121 289.681L113.887 308.273L113.712 309.73L112.628 318.75L113.142 319.125C113.58 319.446 114.019 319.766 114.459 320.087L115.248 310.52L131.836 319.057L129.856 330.1C130.513 330.438 131.173 330.763 131.836 331.072Z" fill="white"/>
<path d="M137.948 297.518L134.24 317.877L152.324 322.98L158.029 304.728L137.948 297.518Z" fill="url(#paint8_linear_319_351)"/>
<path d="M182.476 313.505L160.212 305.511L154.554 323.853L175.435 330.1L182.476 313.505Z" fill="url(#paint9_linear_319_351)"/>
<path d="M133.837 320.087L131.836 331.072C137.448 333.689 143.067 335.826 148.425 337.521L151.505 325.6L133.837 320.087Z" fill="url(#paint10_linear_319_351)"/>
<path fill-rule="evenodd" clip-rule="evenodd" d="M84.6896 259.38L90.8012 272.476L184.695 308.273L199.042 274.456C197.024 274.535 120.455 243.135 81.5788 227.075C81.2311 232.734 80.9978 238.282 80.8848 243.664L95.1667 240.172L112.628 248.903L84.6896 259.38ZM123.106 275.968L103.898 266.364L130.09 255.014L150.171 263.745L123.106 275.968ZM160.212 289.681L141.44 282.157L167.633 268.111L186.841 275.968L160.212 289.681Z" fill="url(#paint11_linear_319_351)"/>
<path d="M81.5788 227.075C120.455 243.135 197.024 274.535 199.042 274.456L199.064 274.403L200.81 270.287L81.8163 223.448C81.732 224.662 81.6528 225.871 81.5788 227.075Z" fill="white"/>
<path d="M81.8163 223.448L200.81 270.287L202.475 266.364L82.2097 218.21C82.0681 219.964 81.9369 221.711 81.8163 223.448Z" fill="black"/>
<path fill-rule="evenodd" clip-rule="evenodd" d="M82.2097 218.21L202.475 266.364L206.236 257.499L182.476 248.903L215.125 236.545L216.92 232.314C195.583 231.025 120.581 201.42 85.7466 186.779C85.3219 189.732 84.9226 192.689 84.5496 195.644L109.136 206.86L88.182 216.464L82.5817 213.844C82.4507 215.304 82.3267 216.76 82.2097 218.21ZM165.887 243.664L144.06 237.418L165.887 227.075L186.841 232.314L165.887 243.664ZM127.471 231.306L104.771 220.829L127.471 213.844L148.425 220.829L127.471 231.306Z" fill="#1E9479"/>
<path d="M103.898 266.364L123.106 275.968L150.171 263.745L130.09 255.014L103.898 266.364Z" fill="white"/>
<path d="M141.44 282.157L160.212 289.681L186.841 275.968L167.633 268.111L141.44 282.157Z" fill="white"/>
<path d="M81.1973 266.364C81.4113 270.324 81.9563 274.106 82.7925 277.715L88.182 279.65L84.6896 259.38L112.628 248.903L95.1667 240.172L80.8848 243.664C80.717 251.659 80.8147 259.287 81.1973 266.364Z" fill="white"/>
<path d="M85.7466 186.779C120.581 201.42 195.583 231.025 216.92 232.314L219.145 227.069C192.603 222.874 119.769 194.36 86.6694 180.627C86.3496 182.674 86.042 184.725 85.7466 186.779Z" fill="white"/>
<path d="M86.6694 180.627C119.769 194.36 192.603 222.874 219.145 227.069L222.904 218.21C204.103 216.114 125.256 186.194 88.182 171.495C87.6514 174.524 87.1469 177.571 86.6694 180.627Z" fill="black"/>
<path d="M88.182 171.495C125.256 186.194 204.103 216.114 222.904 218.21L228.46 205.113L171.125 189.398L167.633 195.644L160.212 186.779L137.948 179.055L133.583 185.032L127.471 175.428L90.1958 160.721C89.4882 164.277 88.8164 167.873 88.182 171.495Z" fill="white"/>
<path d="M231.366 198.263L233.443 195.644L92.0232 151.99C91.3901 154.868 90.7807 157.781 90.1958 160.721L127.471 175.428L133.583 185.032L137.948 179.055L160.212 186.779L167.633 195.644L171.125 189.398L228.46 205.113L231.366 198.263Z" fill="#1E9479"/>
<path d="M82.5817 213.844L88.182 216.464L109.136 206.86L84.5496 195.644C83.7797 201.743 83.1216 207.83 82.5817 213.844Z" fill="white"/>
<path d="M104.771 220.829L127.471 231.306L148.425 220.829L127.471 213.844L104.771 220.829Z" fill="white"/>
<path d="M144.06 237.418L165.887 243.664L186.841 232.314L165.887 227.075L144.06 237.418Z" fill="white"/>
<path d="M182.476 248.903L206.236 257.499L215.125 236.545L182.476 248.903Z" fill="white"/>
<path d="M100.394 120.559L246.405 177.309C245.87 174.637 247.205 170.753 249.703 166.236L103.342 111.957C102.331 114.725 101.348 117.597 100.394 120.559Z" fill="#1E9479"/>
<path d="M103.342 111.957L249.703 166.236C251.119 163.677 252.908 160.915 254.942 158.055L244.465 154.645L240.099 153.225L227.876 149.247L223.511 147.827L211.742 143.997L206.922 142.429L194.699 138.451L189.46 136.747L172.909 131.361L167.633 129.644L161.521 127.655L158.466 126.661L149.298 123.678L144.665 122.17L132.709 118.28L127.008 116.424L116.994 113.166L113.28 111.957L104.419 109.074C104.057 110.022 103.698 110.983 103.342 111.957Z" fill="black"/>
<path d="M149.298 88.1195C130.439 76.2455 116.119 86.5079 110.88 94.3657C108.626 98.776 106.469 103.712 104.419 109.074L113.28 111.957C117.137 104.884 126.947 93.3581 135.329 103.835C143.71 114.312 148.134 121.429 149.298 123.678L158.466 126.661C157.156 120.507 149.124 105.434 127.471 94.3657C123.979 91.6795 121.941 96.067 121.359 98.5966C118.666 94.5222 117.166 87.5957 132.709 92.485C148.253 97.3743 158.394 117.969 161.521 127.655L167.633 129.644C167.633 129.19 167.458 126.535 166.76 119.551C166.061 112.566 156.574 104.999 151.917 102.089L151.044 98.5966C151.743 93.7073 150.171 89.5747 149.298 88.1195Z" fill="#1E9479"/>
<path fill-rule="evenodd" clip-rule="evenodd" d="M116.994 113.166C119.613 108.173 125.201 100.343 133.583 107.327C141.717 114.106 143.678 119.471 144.585 121.951C144.613 122.027 144.639 122.1 144.665 122.17L132.709 118.28C132.127 117.661 130.789 116.002 130.09 114.312C129.392 112.622 127.745 115.016 127.008 116.424L116.994 113.166Z" fill="#1E9479"/>
<path d="M130.09 114.312C129.392 112.622 127.745 115.016 127.008 116.424L132.709 118.28C132.127 117.661 130.789 116.002 130.09 114.312Z" fill="white"/>
<path d="M116.994 113.166C119.613 108.173 125.201 100.343 133.583 107.327C141.717 114.106 143.678 119.471 144.585 121.951L144.665 122.17L149.298 123.678C148.134 121.429 143.71 114.312 135.329 103.835C126.947 93.3581 117.137 104.884 113.28 111.957L116.994 113.166Z" fill="white"/>
<path d="M121.359 98.5966C121.941 96.067 123.979 91.6795 127.471 94.3657C149.124 105.434 157.156 120.507 158.466 126.661L161.521 127.655C158.394 117.969 148.253 97.3743 132.709 92.485C117.166 87.5957 118.666 94.5222 121.359 98.5966Z" fill="white"/>
<path fill-rule="evenodd" clip-rule="evenodd" d="M180.729 103.835C181.792 100.096 184.708 97.4671 188.587 97.7235C192.466 97.9799 195.383 101.48 195.572 105.581C195.761 109.683 191.531 114.974 186.841 114.312C182.151 113.65 179.667 107.575 180.729 103.835ZM184.222 106.454C183.785 104.315 186.423 100.931 188.587 101.216C190.752 101.5 192.08 103.398 192.08 105.581C192.08 107.765 190.757 109.706 188.587 109.947C186.417 110.188 184.658 108.594 184.222 106.454Z" fill="white"/>
<path d="M171.998 95.9773L171.125 102.089L177.237 101.216L176.364 94.3657L171.998 95.9773Z" fill="white"/>
<path d="M178.983 91.6119V95.1043H184.222L185.095 90.7388L181.602 91.6119V87.2465L178.983 91.6119Z" fill="white"/>
<path d="M172.909 82.881L171.125 86.3734L171.998 89.8657H174.618V85.5003H177.237L172.909 82.881Z" fill="white"/>
<path d="M161.521 82.881V90.0004L167.633 89.8657V82.881H161.521Z" fill="white"/>
<path fill-rule="evenodd" clip-rule="evenodd" d="M213.449 91.9667L206.922 105.581L200.81 103.835L199.064 106.454L205.328 108.427L197.253 122.838L181.602 117.805L178.983 123.043L194.434 127.869L189.46 136.747L194.699 138.451L199.175 129.349L211.523 133.206L206.922 142.429L211.742 143.997L216.201 134.667L228.358 138.464L223.511 147.827L227.876 149.247L232.609 139.792L245.266 143.745L240.099 153.225L244.465 154.645L249.614 145.102L261.927 148.948C263.07 147.545 264.239 146.145 265.419 144.76L252.108 140.479L260.094 125.676L277.642 131.203C278.543 130.254 279.419 129.342 280.261 128.473L261.71 122.682L267.165 112.571L263.673 109.97L257.467 121.358L243.948 117.138L251.917 101.216L248.83 98.9171L240.031 115.916L227.092 111.877L235.734 93.7934L231.366 93.4353L222.829 110.546L210.339 106.648L217.399 92.2905L213.449 91.9667ZM208.909 109.555L201.677 124.261L214.008 128.226L221.366 113.479L208.909 109.555ZM225.678 114.837L218.577 129.695L230.853 133.643L238.499 118.875L225.678 114.837ZM235.016 134.982L242.455 120.121L255.843 124.337L247.801 139.094L235.016 134.982Z" fill="white"/>
<path fill-rule="evenodd" clip-rule="evenodd" d="M157.156 76.9041L156.283 96.9851C162.335 100.732 174.038 112.812 172.909 131.361L189.46 136.747L194.434 127.869L178.983 123.043L181.602 117.805L197.253 122.838L205.328 108.427L199.064 106.454L200.81 103.835L206.922 105.581L213.449 91.9667L189.46 90.0004L182.476 76.9041H157.156ZM161.521 90.0004V82.881H167.633V89.8657L161.521 90.0004ZM171.125 86.3734L172.909 82.881L177.237 85.5003H174.618V89.8657H171.998L171.125 86.3734ZM171.125 102.089L171.998 95.9773L176.364 94.3657L177.237 101.216L171.125 102.089ZM178.983 95.1043V91.6119L181.602 87.2465V91.6119L185.095 90.7388L184.222 95.1043H178.983ZM188.587 97.7235C184.708 97.4671 181.792 100.096 180.729 103.835C179.667 107.575 182.151 113.65 186.841 114.312C191.531 114.974 195.761 109.683 195.572 105.581C195.383 101.48 192.466 97.9799 188.587 97.7235Z" fill="#1E9479"/>
<path d="M194.699 138.451L206.922 142.429L211.523 133.206L199.175 129.349L194.699 138.451Z" fill="#1E9479"/>
<path d="M201.677 124.261L208.909 109.555L221.366 113.479L214.008 128.226L201.677 124.261Z" fill="#1E9479"/>
<path d="M231.366 93.4353L217.399 92.2905L210.339 106.648L222.829 110.546L231.366 93.4353Z" fill="#1E9479"/>
<path d="M242.719 94.3659L235.734 93.7934L227.092 111.877L240.031 115.916L248.83 98.9171L242.719 94.3659Z" fill="#1E9479"/>
<path d="M218.577 129.695L225.678 114.837L238.499 118.875L230.853 133.643L218.577 129.695Z" fill="#1E9479"/>
<path d="M211.742 143.997L223.511 147.827L228.358 138.464L216.201 134.667L211.742 143.997Z" fill="#1E9479"/>
<path d="M263.673 109.97L251.917 101.216L243.948 117.138L257.467 121.358L263.673 109.97Z" fill="#1E9479"/>
<path d="M242.455 120.121L235.016 134.982L247.801 139.094L255.843 124.337L242.455 120.121Z" fill="#1E9479"/>
<path d="M227.876 149.247L240.099 153.225L245.266 143.745L232.609 139.792L227.876 149.247Z" fill="#1E9479"/>
<path d="M265.419 144.76C269.552 139.906 273.824 135.225 277.642 131.203L260.094 125.676L252.108 140.479L265.419 144.76Z" fill="#1E9479"/>
<path d="M280.261 128.473C281.506 127.189 282.679 125.999 283.754 124.924L267.165 112.571L261.71 122.682L280.261 128.473Z" fill="#1E9479"/>
<path d="M244.465 154.645L254.942 158.055C257.054 155.085 259.43 152.01 261.927 148.948L249.614 145.102L244.465 154.645Z" fill="#1E9479"/>
<path d="M641.026 358.453H706.433L739.314 400.754L771.661 438.433L832.624 514.859H760.82L718.874 463.316L697.368 432.746L641.026 358.453ZM838.134 302.999C838.134 342.693 830.61 376.463 815.562 404.308C800.632 432.153 780.252 453.422 754.421 468.115C728.709 482.689 699.797 489.977 667.686 489.977C635.339 489.977 606.308 482.63 580.596 467.937C554.884 453.245 534.563 431.976 519.633 404.131C504.703 376.285 497.238 342.575 497.238 302.999C497.238 263.305 504.703 229.535 519.633 201.69C534.563 173.845 554.884 152.635 580.596 138.061C606.308 123.368 635.339 116.022 667.686 116.022C699.797 116.022 728.709 123.368 754.421 138.061C780.252 152.635 800.632 173.845 815.562 201.69C830.61 229.535 838.134 263.305 838.134 302.999ZM760.109 302.999C760.109 277.287 756.258 255.603 748.556 237.948C740.972 220.293 730.249 206.904 716.386 197.78C702.522 188.656 686.289 184.095 667.686 184.095C649.083 184.095 632.85 188.656 618.987 197.78C605.124 206.904 594.341 220.293 586.639 237.948C579.056 255.603 575.264 277.287 575.264 302.999C575.264 328.712 579.056 350.395 586.639 368.05C594.341 385.705 605.124 399.095 618.987 408.218C632.85 417.342 649.083 421.904 667.686 421.904C686.289 421.904 702.522 417.342 716.386 408.218C730.249 399.095 740.972 385.705 748.556 368.05C756.258 350.395 760.109 328.712 760.109 302.999ZM972.102 120.999V485H895.143V120.999H972.102ZM1035.42 485V120.999H1179.03C1206.64 120.999 1230.16 126.271 1249.59 136.817C1269.02 147.244 1283.83 161.759 1294.02 180.362C1304.33 198.847 1309.49 220.175 1309.49 244.347C1309.49 268.519 1304.27 289.847 1293.85 308.331C1283.42 326.816 1268.31 341.212 1248.52 351.521C1228.86 361.83 1205.04 366.984 1177.08 366.984H1085.54V305.31H1164.63C1179.44 305.31 1191.65 302.762 1201.25 297.667C1210.96 292.454 1218.19 285.285 1222.93 276.161C1227.79 266.919 1230.22 256.314 1230.22 244.347C1230.22 232.261 1227.79 221.715 1222.93 212.71C1218.19 203.586 1210.96 196.536 1201.25 191.559C1191.53 186.464 1179.21 183.917 1164.28 183.917H1112.38V485H1035.42ZM1436.44 120.999V485H1359.48V120.999H1436.44Z" fill="url(#paint12_linear_319_351)"/>
<path d="M532.425 600.555V564.465H536.795V596.678H553.571V600.555H532.425ZM564.096 600.555H559.514L572.766 564.465H577.277L590.529 600.555H585.947L575.163 570.174H574.881L564.096 600.555ZM565.788 586.457H584.256V590.334H565.788V586.457ZM639.148 575.743H634.778C634.52 574.486 634.067 573.382 633.421 572.43C632.787 571.478 632.012 570.679 631.095 570.033C630.191 569.375 629.186 568.882 628.082 568.553C626.977 568.224 625.826 568.06 624.628 568.06C622.443 568.06 620.463 568.612 618.689 569.716C616.927 570.82 615.523 572.448 614.478 574.597C613.444 576.747 612.927 579.385 612.927 582.51C612.927 585.635 613.444 588.272 614.478 590.422C615.523 592.572 616.927 594.199 618.689 595.303C620.463 596.408 622.443 596.96 624.628 596.96C625.826 596.96 626.977 596.795 628.082 596.466C629.186 596.137 630.191 595.65 631.095 595.004C632.012 594.346 632.787 593.541 633.421 592.59C634.067 591.626 634.52 590.522 634.778 589.277H639.148C638.819 591.121 638.22 592.772 637.351 594.228C636.482 595.685 635.401 596.925 634.109 597.947C632.816 598.957 631.365 599.726 629.756 600.255C628.158 600.784 626.449 601.048 624.628 601.048C621.55 601.048 618.813 600.296 616.416 598.792C614.019 597.289 612.134 595.151 610.759 592.378C609.385 589.606 608.698 586.316 608.698 582.51C608.698 578.703 609.385 575.414 610.759 572.641C612.134 569.869 614.019 567.731 616.416 566.227C618.813 564.723 621.55 563.971 624.628 563.971C626.449 563.971 628.158 564.236 629.756 564.764C631.365 565.293 632.816 566.068 634.109 567.09C635.401 568.101 636.482 569.334 637.351 570.791C638.22 572.236 638.819 573.887 639.148 575.743ZM676.661 582.51C676.661 586.316 675.974 589.606 674.6 592.378C673.225 595.151 671.339 597.289 668.943 598.792C666.546 600.296 663.809 601.048 660.731 601.048C657.653 601.048 654.916 600.296 652.519 598.792C650.123 597.289 648.237 595.151 646.862 592.378C645.488 589.606 644.801 586.316 644.801 582.51C644.801 578.703 645.488 575.414 646.862 572.641C648.237 569.869 650.123 567.731 652.519 566.227C654.916 564.723 657.653 563.971 660.731 563.971C663.809 563.971 666.546 564.723 668.943 566.227C671.339 567.731 673.225 569.869 674.6 572.641C675.974 575.414 676.661 578.703 676.661 582.51ZM672.432 582.51C672.432 579.385 671.909 576.747 670.864 574.597C669.83 572.448 668.426 570.82 666.652 569.716C664.89 568.612 662.916 568.06 660.731 568.06C658.546 568.06 656.566 568.612 654.792 569.716C653.03 570.82 651.626 572.448 650.581 574.597C649.547 576.747 649.03 579.385 649.03 582.51C649.03 585.635 649.547 588.272 650.581 590.422C651.626 592.572 653.03 594.199 654.792 595.303C656.566 596.408 658.546 596.96 660.731 596.96C662.916 596.96 664.89 596.408 666.652 595.303C668.426 594.199 669.83 592.572 670.864 590.422C671.909 588.272 672.432 585.635 672.432 582.51ZM712.628 564.465V600.555H708.399L688.732 572.218H688.38V600.555H684.01V564.465H688.239L707.976 592.871H708.328V564.465H712.628ZM721.373 600.555V564.465H743.013V568.342H725.743V580.536H741.391V584.413H725.743V600.555H721.373ZM754.868 564.465V600.555H750.498V564.465H754.868ZM765.111 600.555H760.529L773.781 564.465H778.292L791.544 600.555H786.962L776.177 570.174H775.895L765.111 600.555ZM766.802 586.457H785.27V590.334H766.802V586.457ZM825.783 564.465V600.555H821.554L801.888 572.218H801.536V600.555H797.165V564.465H801.395L821.131 592.871H821.484V564.465H825.783ZM833.33 600.555V597.383L852.785 568.342H833.119V564.465H858.001V567.637L838.546 596.678H858.212V600.555H833.33ZM867.023 600.555H862.442L875.693 564.465H880.205L893.456 600.555H888.875L878.09 570.174H877.808L867.023 600.555ZM868.715 586.457H887.183V590.334H868.715V586.457ZM913.035 600.555V564.465H934.815V568.342H917.405V580.536H933.688V584.413H917.405V596.678H935.097V600.555H913.035ZM962.429 573.487C962.218 571.702 961.36 570.315 959.856 569.328C958.353 568.342 956.508 567.848 954.323 567.848C952.725 567.848 951.327 568.107 950.129 568.624C948.942 569.14 948.014 569.851 947.345 570.756C946.687 571.66 946.358 572.688 946.358 573.84C946.358 574.803 946.587 575.631 947.045 576.324C947.515 577.006 948.114 577.576 948.843 578.034C949.571 578.48 950.335 578.85 951.133 579.144C951.932 579.426 952.667 579.655 953.336 579.831L957.002 580.818C957.941 581.065 958.987 581.405 960.138 581.84C961.301 582.275 962.412 582.868 963.469 583.62C964.538 584.36 965.419 585.312 966.112 586.475C966.805 587.638 967.152 589.065 967.152 590.757C967.152 592.707 966.641 594.469 965.619 596.043C964.608 597.618 963.128 598.869 961.178 599.797C959.24 600.725 956.884 601.189 954.112 601.189C951.527 601.189 949.289 600.772 947.398 599.938C945.518 599.104 944.038 597.941 942.957 596.449C941.888 594.957 941.283 593.224 941.142 591.25H945.653C945.77 592.613 946.229 593.741 947.027 594.634C947.838 595.515 948.86 596.173 950.094 596.607C951.339 597.03 952.678 597.242 954.112 597.242C955.78 597.242 957.278 596.972 958.605 596.431C959.933 595.879 960.984 595.115 961.76 594.14C962.535 593.153 962.923 592.002 962.923 590.686C962.923 589.488 962.588 588.513 961.918 587.761C961.248 587.009 960.367 586.398 959.275 585.928C958.182 585.458 957.002 585.047 955.733 584.695L951.292 583.426C948.473 582.615 946.24 581.458 944.596 579.955C942.951 578.451 942.129 576.483 942.129 574.051C942.129 572.03 942.675 570.268 943.767 568.765C944.872 567.249 946.352 566.074 948.208 565.24C950.076 564.394 952.161 563.971 954.464 563.971C956.79 563.971 958.858 564.388 960.667 565.222C962.476 566.045 963.909 567.173 964.967 568.606C966.036 570.039 966.6 571.666 966.658 573.487H962.429ZM988.294 600.555V564.465H1010.07V568.342H992.664V580.536H1008.95V584.413H992.664V596.678H1010.36V600.555H988.294ZM1017.95 600.555V564.465H1022.32V596.678H1039.1V600.555H1017.95ZM1088.44 564.465V600.555H1084.21L1064.54 572.218H1064.19V600.555H1059.82V564.465H1064.05L1083.79 592.871H1084.14V564.465H1088.44ZM1120.87 564.465H1125.24V588.36C1125.24 590.827 1124.66 593.03 1123.49 594.969C1122.34 596.895 1120.72 598.417 1118.61 599.533C1116.51 600.637 1114.04 601.189 1111.21 601.189C1108.38 601.189 1105.91 600.637 1103.81 599.533C1101.71 598.417 1100.07 596.895 1098.91 594.969C1097.76 593.03 1097.18 590.827 1097.18 588.36V564.465H1101.56V588.008C1101.56 589.77 1101.94 591.338 1102.72 592.713C1103.49 594.076 1104.6 595.151 1106.03 595.938C1107.48 596.713 1109.2 597.101 1111.21 597.101C1113.22 597.101 1114.95 596.713 1116.39 595.938C1117.84 595.151 1118.94 594.076 1119.71 592.713C1120.48 591.338 1120.87 589.77 1120.87 588.008V564.465ZM1133.97 600.555V564.465H1155.75V568.342H1138.34V580.536H1154.62V584.413H1138.34V596.678H1156.03V600.555H1133.97ZM1165.1 564.465L1175.82 594.845H1176.24L1186.96 564.465H1191.54L1178.29 600.555H1173.77L1160.52 564.465H1165.1ZM1225.91 582.51C1225.91 586.316 1225.23 589.606 1223.85 592.378C1222.48 595.151 1220.59 597.289 1218.2 598.792C1215.8 600.296 1213.06 601.048 1209.98 601.048C1206.91 601.048 1204.17 600.296 1201.77 598.792C1199.38 597.289 1197.49 595.151 1196.12 592.378C1194.74 589.606 1194.05 586.316 1194.05 582.51C1194.05 578.703 1194.74 575.414 1196.12 572.641C1197.49 569.869 1199.38 567.731 1201.77 566.227C1204.17 564.723 1206.91 563.971 1209.98 563.971C1213.06 563.971 1215.8 564.723 1218.2 566.227C1220.59 567.731 1222.48 569.869 1223.85 572.641C1225.23 575.414 1225.91 578.703 1225.91 582.51ZM1221.68 582.51C1221.68 579.385 1221.16 576.747 1220.12 574.597C1219.08 572.448 1217.68 570.82 1215.9 569.716C1214.14 568.612 1212.17 568.06 1209.98 568.06C1207.8 568.06 1205.82 568.612 1204.04 569.716C1202.28 570.82 1200.88 572.448 1199.83 574.597C1198.8 576.747 1198.28 579.385 1198.28 582.51C1198.28 585.635 1198.8 588.272 1199.83 590.422C1200.88 592.572 1202.28 594.199 1204.04 595.303C1205.82 596.408 1207.8 596.96 1209.98 596.96C1212.17 596.96 1214.14 596.408 1215.9 595.303C1217.68 594.199 1219.08 592.572 1220.12 590.422C1221.16 588.272 1221.68 585.635 1221.68 582.51ZM1276.26 575.743H1271.89C1271.63 574.486 1271.18 573.382 1270.53 572.43C1269.9 571.478 1269.12 570.679 1268.21 570.033C1267.3 569.375 1266.3 568.882 1265.19 568.553C1264.09 568.224 1262.94 568.06 1261.74 568.06C1259.55 568.06 1257.57 568.612 1255.8 569.716C1254.04 570.82 1252.63 572.448 1251.59 574.597C1250.56 576.747 1250.04 579.385 1250.04 582.51C1250.04 585.635 1250.56 588.272 1251.59 590.422C1252.63 592.572 1254.04 594.199 1255.8 595.303C1257.57 596.408 1259.55 596.96 1261.74 596.96C1262.94 596.96 1264.09 596.795 1265.19 596.466C1266.3 596.137 1267.3 595.65 1268.21 595.004C1269.12 594.346 1269.9 593.541 1270.53 592.59C1271.18 591.626 1271.63 590.522 1271.89 589.277H1276.26C1275.93 591.121 1275.33 592.772 1274.46 594.228C1273.59 595.685 1272.51 596.925 1271.22 597.947C1269.93 598.957 1268.48 599.726 1266.87 600.255C1265.27 600.784 1263.56 601.048 1261.74 601.048C1258.66 601.048 1255.92 600.296 1253.53 598.792C1251.13 597.289 1249.25 595.151 1247.87 592.378C1246.5 589.606 1245.81 586.316 1245.81 582.51C1245.81 578.703 1246.5 575.414 1247.87 572.641C1249.25 569.869 1251.13 567.731 1253.53 566.227C1255.92 564.723 1258.66 563.971 1261.74 563.971C1263.56 563.971 1265.27 564.236 1266.87 564.764C1268.48 565.293 1269.93 566.068 1271.22 567.09C1272.51 568.101 1273.59 569.334 1274.46 570.791C1275.33 572.236 1275.93 573.887 1276.26 575.743ZM1284.8 600.555H1280.22L1293.47 564.465H1297.98L1311.24 600.555H1306.65L1295.87 570.174H1295.59L1284.8 600.555ZM1286.49 586.457H1304.96V590.334H1286.49V586.457ZM1316.86 600.555V564.465H1329.05C1331.88 564.465 1334.2 564.976 1335.99 565.998C1337.8 567.008 1339.14 568.377 1340.01 570.104C1340.88 571.831 1341.32 573.757 1341.32 575.884C1341.32 578.01 1340.88 579.943 1340.01 581.681C1339.15 583.42 1337.83 584.806 1336.03 585.84C1334.23 586.862 1331.93 587.373 1329.12 587.373H1320.38V583.497H1328.98C1330.92 583.497 1332.48 583.162 1333.65 582.492C1334.83 581.822 1335.68 580.918 1336.21 579.778C1336.75 578.627 1337.02 577.329 1337.02 575.884C1337.02 574.439 1336.75 573.147 1336.21 572.007C1335.68 570.867 1334.82 569.975 1333.63 569.328C1332.45 568.671 1330.87 568.342 1328.91 568.342H1321.23V600.555H1316.86ZM1352.73 564.465V600.555H1348.36V564.465H1352.73ZM1359.52 568.342V564.465H1386.58V568.342H1375.23V600.555H1370.86V568.342H1359.52ZM1390.59 600.555H1386.01L1399.26 564.465H1403.77L1417.02 600.555H1412.44L1401.66 570.174H1401.38L1390.59 600.555ZM1392.28 586.457H1410.75V590.334H1392.28V586.457ZM1422.65 600.555V564.465H1427.02V596.678H1443.79V600.555H1422.65Z" fill="black"/>
<defs>
<linearGradient id="paint0_linear_319_351" x1="213.034" y1="59.3076" x2="213.034" y2="606.308" gradientUnits="userSpaceOnUse">
<stop stop-color="#13AC86"/>
<stop offset="1" stop-color="#128194"/>
</linearGradient>
<linearGradient id="paint1_linear_319_351" x1="213.034" y1="59.3076" x2="213.034" y2="606.308" gradientUnits="userSpaceOnUse">
<stop stop-color="#157D96"/>
<stop offset="1" stop-color="#233E99"/>
</linearGradient>
<linearGradient id="paint2_linear_319_351" x1="213.034" y1="59.3076" x2="213.034" y2="606.308" gradientUnits="userSpaceOnUse">
<stop stop-color="#157D96"/>
<stop offset="1" stop-color="#233E99"/>
</linearGradient>
<linearGradient id="paint3_linear_319_351" x1="213.034" y1="59.3076" x2="213.034" y2="606.308" gradientUnits="userSpaceOnUse">
<stop stop-color="#157D96"/>
<stop offset="1" stop-color="#233E99"/>
</linearGradient>
<linearGradient id="paint4_linear_319_351" x1="213.034" y1="59.3076" x2="213.034" y2="606.308" gradientUnits="userSpaceOnUse">
<stop stop-color="#157D96"/>
<stop offset="1" stop-color="#233E99"/>
</linearGradient>
<linearGradient id="paint5_linear_319_351" x1="213.034" y1="59.3076" x2="213.034" y2="606.308" gradientUnits="userSpaceOnUse">
<stop stop-color="#157D96"/>
<stop offset="1" stop-color="#233E99"/>
</linearGradient>
<linearGradient id="paint6_linear_319_351" x1="213.034" y1="59.3076" x2="213.034" y2="606.308" gradientUnits="userSpaceOnUse">
<stop stop-color="#157D96"/>
<stop offset="1" stop-color="#233E99"/>
</linearGradient>
<linearGradient id="paint7_linear_319_351" x1="213.034" y1="59.3076" x2="213.034" y2="606.308" gradientUnits="userSpaceOnUse">
<stop stop-color="#157D96"/>
<stop offset="1" stop-color="#233E99"/>
</linearGradient>
<linearGradient id="paint8_linear_319_351" x1="213.034" y1="59.3076" x2="213.034" y2="606.308" gradientUnits="userSpaceOnUse">
<stop stop-color="#157D96"/>
<stop offset="1" stop-color="#233E99"/>
</linearGradient>
<linearGradient id="paint9_linear_319_351" x1="213.034" y1="59.3076" x2="213.034" y2="606.308" gradientUnits="userSpaceOnUse">
<stop stop-color="#157D96"/>
<stop offset="1" stop-color="#233E99"/>
</linearGradient>
<linearGradient id="paint10_linear_319_351" x1="213.034" y1="59.3076" x2="213.034" y2="606.308" gradientUnits="userSpaceOnUse">
<stop stop-color="#157D96"/>
<stop offset="1" stop-color="#233E99"/>
</linearGradient>
<linearGradient id="paint11_linear_319_351" x1="213.034" y1="59.3076" x2="213.034" y2="606.308" gradientUnits="userSpaceOnUse">
<stop stop-color="#149F92"/>
<stop offset="1" stop-color="#1D5E97"/>
</linearGradient>
<linearGradient id="paint12_linear_319_351" x1="472" y1="303" x2="1469" y2="303" gradientUnits="userSpaceOnUse">
<stop stop-color="#21378C"/>
<stop offset="1" stop-color="#29B87E"/>
</linearGradient>
</defs>
</svg>
